<svg xmlns="http://www.w3.org/2000/svg" width="92" height="14" viewBox="0 0 92 14">
  <g fill="#BFBFBF" fill-rule="evenodd" opacity=".45">
    <path d="M91.6663949 5.84156778C91.8879624 6.334122 92 6.86834538 92 7.43052155L92 11.1711903 90.6034944 11.1711903 90.6034944 10.4553388C90.2547069 10.7593092 89.8514256 11.007374 89.4015128 11.1927725 88.8859905 11.4047587 88.32892 11.5126044 87.7448738 11.5126044 87.1605565 11.5126044 86.6031471 11.4047587 86.0876248 11.1927725 85.5749492 10.9811113 85.1196819 10.6865669 84.7345652 10.31759 84.3499907 9.94874318 84.0426158 9.51163951 83.8222005 9.01999538 83.6011075 8.52789621 83.4891376 7.99269773 83.4891376 7.43052155 83.4891376 6.86834538 83.6011075 6.334122 83.8222005 5.84156778 84.0426158 5.34979364 84.3499907 4.91281997 84.7345652 4.5438431 85.1196819 4.17493124 85.5749492 3.8802568 86.0876248 3.66924571 87.1143316 3.24468829 88.3747382 3.24468829 89.4015128 3.66924571 89.9143239 3.8802568 90.3694557 4.17493124 90.7544369 4.5438431 91.1390791 4.91281997 91.4463863 5.34979364 91.6663949 5.84156778zM90.6034944 7.43052155C90.6034944 7.05822935 90.5288027 6.70062862 90.3807069 6.36877046 90.2325434 6.03522213 90.0267005 5.74119775 89.7661604 5.49176783 89.5067048 5.24240291 89.1991943 5.04445813 88.852508 4.90248394 88.5058216 4.76109481 88.1333117 4.68854756 87.7448738 4.68854756 87.3563682 4.68854756 86.983316 4.76109481 86.6366296 4.90248394 86.2900111 5.04445813 85.9818228 5.24240291 85.7223672 5.49176783 85.4623694 5.74119775 85.256052 6.03522213 85.1091085 6.3681854 84.960945 6.69971853 84.8860499 7.05686422 84.8860499 7.43052155 84.8860499 7.80508898 84.960945 8.16184463 85.1085663 8.4927927 85.256052 8.82627602 85.4623694 9.12082045 85.7223672 9.37018537 85.9818228 9.6196803 86.2900111 9.81749507 86.636223 9.95901421 87.3272235 10.2423775 88.1620497 10.2423775 88.852508 9.95901421 89.1991943 9.81749507 89.5067048 9.6196803 89.7661604 9.37018537 90.0267005 9.12082045 90.2332212 8.82757615 90.3807069 8.49987841 90.5087403 8.20143359 90.5847198 7.88114658 90.6034944 7.5490934L90.6034944 7.43052155zM74.4069781 5.44134879L77.002822 5.44134879 77.002822 4.10123988 74.4069781 4.10123988 74.4069781 2.6924191 73.0106081 2.6924191 73.0106081 4.10123988 71.755556 4.10123988 71.755556 5.44134879 73.0106081 5.44134879 73.0106081 8.70057946C73.009727 8.73139254 73.0058636 8.76188059 73.0058636 8.79262866 73.0058636 8.82331173 73.009727 8.85373477 73.0106081 8.88467786 73.0397528 9.72599192 73.4662821 10.4684311 74.1169545 10.947984 74.5947242 11.3005793 75.1915805 11.5126305 75.8421174 11.5126305 76.3514718 11.5126305 76.8275471 11.3818374 77.2404529 11.1567849L76.6492222 10.0230066C76.4150479 10.1649158 76.1395288 10.2503343 75.8421174 10.2507894 75.1721281 10.2499443 74.4069781 9.88525784 74.4069781 8.90879527L74.4069781 8.32991242M81.0758683 4.01158942C80.6275144 4.20485373 80.2150152 4.44960319 79.8586366 4.76241445L79.8586366 3.71925521 78.4764322 3.71925521 78.4764322 11.172575 79.87348 11.172575 79.87348 7.7732553C79.87348 7.40070307 79.9487818 7.04388242 80.0958609 6.71137419 80.2447699 6.3771758 80.4518329 6.08204631 80.7101362 5.83365649 80.9691852 5.58507165 81.2758823 5.38348651 81.6254832 5.24521769 82.2194928 5.00904909 82.9204567 5.03141132 83.3100468 5.03141132L83.4891173 5.03141132 83.4891173 3.69123741 83.3100468 3.69123741C82.7243739 3.69123741 81.7208473 3.7341417 81.0758683 4.01158942M69.4498916 7.23531355C69.0817195 7.03509354 68.6808782 6.87342239 68.2594323 6.75485054 67.8547277 6.6414142 67.4862844 6.53395846 67.1526793 6.42929801 66.8343243 6.33035812 66.5785965 6.22244734 66.3916637 6.10946605 66.2294701 6.01202131 66.1299714 5.87420754 66.0861188 5.69296943 66.0421984 5.48702885 66.1066557 5.29662483 66.283625 5.10784596 66.4737433 4.90658585 66.6794507 4.77176238 66.8943081 4.70721093 67.474491 4.53403362 68.0178024 4.61113133 68.4418239 4.79737494 68.8703188 4.98556874 68.9603285 5.45634579 68.9603285 5.45634579L70.5723693 5.45634579C70.5723693 5.45634579 70.4984908 4.6568959 69.745202 4.0614364 69.497811 3.86583186 69.2140229 3.68043333 68.8668621 3.54834013 68.2096152 3.29995031 67.1625072 3.26387171 66.3405588 3.55295559 65.9579499 3.68836412 65.6250226 3.86674195 65.3503846 4.08204346 65.0728999 4.30111535 64.8543147 4.55600582 64.70344 4.8390441 64.5441609 5.13170335 64.4887182 5.45394055 64.5373152 5.79762989 64.5966213 6.22816791 64.7735907 6.5933094 65.0625976 6.88232828 65.3450301 7.1657566 65.6862264 7.38151316 66.0747321 7.52348734 66.4414131 7.65792078 66.8499811 7.77610258 67.2899983 7.87315728 67.706293 7.96429639 68.0556905 8.0655115 68.3280918 8.17465741 68.5807018 8.27476741 68.7735313 8.40361029 68.9000057 8.55735065 69.0218035 8.70524043 69.0786695 8.92340223 69.0689094 9.19928979 69.0504737 9.46867671 68.926846 9.69333916 68.6921294 9.88569338 68.4619541 10.0757074 68.098662 10.171592 67.6083533 10.171592L67.5397616 10.172437C67.1390558 10.172437 66.6892786 10.0996298 66.4370752 9.95473028 66.1656906 9.79929975 65.977809 9.62839767 65.8776326 9.44722457 65.7752872 9.25961582 65.7228945 9.05452033 65.7228945 8.83752865L65.7228945 8.66513142 64.2577972 8.66513142 64.2530528 8.83362826C64.2412593 9.26748161 64.3528903 9.63918875 64.5119661 9.97299711 64.9223642 10.8349832 65.8044319 11.2170264 66.2003932 11.342619 66.5958122 11.4677565 67.1318035 11.5120909 67.5372538 11.5120909 67.9394506 11.5120909 68.3333785 11.4611908 68.709074 11.3621209 69.0865318 11.2618159 69.4243392 11.1137961 69.7121262 10.9213769 70.002692 10.7275925 70.2386286 10.4834281 70.4107178 10.1962294 70.5846372 9.90721053 70.6722746 9.57944778 70.6722746 9.22178204 70.6722746 8.74736464 70.5630836 8.34516945 70.3479551 8.02624758 70.1351988 7.70934091 69.832975 7.44352935 69.4498916 7.23531355M63.162004 7.30354436L56.0529339 7.30354436C56.0509005 7.34644865 56.0494772 7.38850785 56.0494772 7.42965697 56.0494772 7.80220919 56.1243723 8.15935488 56.2722647 8.4927732 56.4210382 8.82521642 56.6274234 9.12041091 56.8864045 9.36925578 57.1462668 9.61777561 57.4534384 9.81656548 57.8007347 9.95808462 58.4909219 10.2415779 59.326087 10.2415779 60.0163419 9.95808462 60.3629605 9.81656548 60.6707421 9.6186207 60.9301977 9.36925578 61.1147582 9.1933482 61.2734952 8.98688757 61.4034941 8.75565947L61.4541923 8.66465037 62.9622611 8.66465037 62.8269077 9.01100498C62.6079836 9.51077492 62.3036587 9.94774858 61.9184064 10.3165954 61.5333575 10.6865474 61.0783613 10.9802468 60.5654823 11.1917779 60.04996 11.4037641 59.4924151 11.5116099 58.9083689 11.5116099 58.3239838 11.5116099 57.7671167 11.4037641 57.2520688 11.1917779 56.7393254 10.9810918 56.2840581 10.6865474 55.8985347 10.3165954 55.5134858 9.94735854 55.2062464 9.51025487 54.9862379 9.01913079 54.7652804 8.52599152 54.6531749 7.99092305 54.6531749 7.42965697 54.6531749 6.86832588 54.7652804 6.33358244 54.9862379 5.84050817 55.2062464 5.34983914 55.5134858 4.91280047 55.8985347 4.54291351 56.2840581 4.17309156 56.7393254 3.87900217 57.2520688 3.66825111 58.2778267 3.2437587 59.5387078 3.2437587 60.5654823 3.66825111 61.0783613 3.87945722 61.5333575 4.17309156 61.9184064 4.54291351 62.3036587 4.91182537 62.6079836 5.34886405 62.8241288 5.84200332 63.0084182 6.24439353 63.1176769 6.67499656 63.148855 7.11905593L63.162004 7.30354436zM60.0168842 4.90155435C59.3225625 4.61812603 58.4939719 4.61812603 57.8007347 4.90155435 57.4534384 5.04346353 57.1462668 5.24192836 56.8864045 5.49070822 56.7354621 5.6356077 56.6029554 5.79396352 56.4901044 5.96343546L61.3143656 5.96343546C61.2023957 5.79246837 61.0734134 5.63320246 60.9278255 5.488563 60.6707421 5.24147331 60.3629605 5.04346353 60.0168842 4.90155435z"/>
    <polygon points="54.376 3.349 52.348 3.349 49.88 5.583 49.626 5.576 49.645 .875 48.245 .875 48.245 11.171 49.645 11.171 49.649 7.698 49.874 7.698 52.538 11.171 54.266 11.171 50.77 6.613"/>
    <path d="M40.5352383 5.49175482C40.7946939 5.24284495 41.1024755 5.04444513 41.4495685 4.90253595 42.1428735 4.61897761 42.9713963 4.61897761 43.6653791 4.90253595 44.0119976 5.04444513 44.3195081 5.24238991 44.5790315 5.49175482 44.7625753 5.66636227 44.9160256 5.86768739 45.0362644 6.08851445L45.0862848 6.18179878 46.624515 6.18179878 46.4729626 5.84298492C46.2568173 5.34978064 45.9524924 4.91280697 45.5675113 4.5438301 45.1823946 4.17400815 44.727195 3.8802438 44.2143839 3.66923271 43.1876093 3.24474029 41.9266605 3.24474029 40.9009026 3.66923271 40.3881592 3.87985376 39.9328919 4.17400815 39.5473685 4.5438301 39.1624551 4.91365206 38.855148 5.35069073 38.6350716 5.84155478 38.4139786 6.33456404 38.3020087 6.86911245 38.3020087 7.43050855 38.3020087 7.99183964 38.4139786 8.5268431 38.6350716 9.01998238 38.855148 9.51117146 39.1624551 9.94827514 39.5473685 10.317577 39.9328919 10.687594 40.3881592 10.9821384 40.9009026 11.1927595 41.4154082 11.4047457 41.9730887 11.5125914 42.5572027 11.5125914 43.1414522 11.5125914 43.6987938 11.4047457 44.2143839 11.1927595 44.727195 10.9810983 45.1823946 10.687594 45.5675113 10.317577 45.9524924 9.94879519 46.2568173 9.5116265 46.4759448 9.01198658L46.6112982 8.66550196 45.1030261 8.66550196 45.0523279 8.75670607C44.922329 8.98773916 44.7632531 9.19419979 44.5790315 9.37017237 44.3195081 9.6196673 44.0119976 9.81748207 43.6653791 9.95900121 42.974853 10.2423645 42.1394168 10.2423645 41.4495685 9.95900121 41.1024755 9.81748207 40.7946939 9.6186272 40.5352383 9.37017237 40.2763249 9.1213275 40.0699398 8.82626302 39.9213696 8.4937548 39.7732738 8.16033648 39.6983109 7.80319079 39.6983109 7.43050855 39.6983109 7.05828136 39.7732738 6.70113567 39.9217085 6.3681724 40.0699398 6.03520913 40.2763249 5.74014464 40.5352383 5.49175482M36.0225949 4.5437976C36.4071016 4.91277447 36.7144766 5.34883804 36.9348918 5.84152227 37.1565271 6.33544163 37.2685648 6.8705751 37.2685648 7.43054105 37.2685648 7.99096205 37.1565271 8.52596551 36.9348918 9.02001488 36.7144766 9.51263411 36.4071016 9.94876268 36.0225949 10.3176095 35.6374782 10.6875615 35.1822109 10.9811308 34.6696709 11.192792 34.154013 11.4047132 33.5964681 11.512624 33.0128286 11.512624 32.4281045 11.512624 31.8711697 11.4047132 31.356054 11.192792 30.8433784 10.9821059 30.3881789 10.6875615 30.0026555 10.3176095 29.617471 9.94824263 29.3103672 9.51120396 29.0907653 9.02001488 28.86913 8.5268756 28.7577024 7.99180714 28.7577024 7.43054105 28.7577024 6.86914496 28.86913 6.33453154 29.0907653 5.84152227 29.3103672 5.35072323 29.617471 4.91368456 30.0026555 4.5437976 30.3881789 4.17397565 30.8433784 3.87988626 31.356054 3.66920021 32.3818797 3.24470779 33.6428963 3.24470779 34.6696709 3.66920021 35.1822109 3.88021129 35.6374782 4.17397565 36.0225949 4.5437976zM33.0128286 4.68856707C32.6242551 4.68856707 32.251813 4.76104931 31.9048555 4.90250344 31.5575591 5.04447763 31.2504553 5.24281245 30.9909319 5.49172232 30.7313408 5.74017715 30.5248879 6.03478659 30.3769954 6.3682049 30.2289675 6.70110317 30.1535979 7.05824885 30.1535979 7.43054105 30.1535979 7.80315829 30.2289675 8.16030398 30.3764532 8.49372229 30.5248879 8.82623052 30.7313408 9.121295 30.9909319 9.37020487 31.2504553 9.6186597 31.5575591 9.81744956 31.9048555 9.9589687 32.5950427 10.242397 33.4305467 10.242397 34.1204627 9.9589687 34.4670813 9.81744956 34.7747951 9.6196348 35.0347252 9.37020487 35.2938419 9.121295 35.5002948 8.82720561 35.6491361 8.4928122 35.7966896 8.16030398 35.8717203 7.80263824 35.8717203 7.43054105 35.8717203 7.05824885 35.7966896 6.70110317 35.6485939 6.3682049 35.5002948 6.03478659 35.2938419 5.74017715 35.0347252 5.49172232 34.7747951 5.24242241 34.4670813 5.04447763 34.1208694 4.90250344 33.7737763 4.76104931 33.4008597 4.68856707 33.0128286 4.68856707zM26.640367 4.55845657C27.0250771 4.92717341 27.3315709 5.36414707 27.5526639 5.85592121 27.7738247 6.35003559 27.8862691 6.88419396 27.8862691 7.44448495 27.8862691 8.00536099 27.7738247 8.54042946 27.5526639 9.03454383 27.3315709 9.52605795 27.0250771 9.96322663 26.640367 10.3321385 26.2558603 10.7009203 25.800593 10.9950747 25.2874429 11.2067359 24.2528061 11.6320734 23.0430299 11.6712723 21.8150892 11.0736676 21.3931688 10.8681171 21.0439069 10.6258378 20.7717767 10.3494952L20.7717767 14 19.375 14 19.375 7.44448495C19.375 6.88328387 19.4870376 6.3491255 19.7079951 5.85592121 19.9290204 5.36336699 20.2356498 4.92717341 20.6203598 4.55845657 21.0055443 4.1885046 21.4611505 3.89480525 21.9733517 3.68327411 23.0020918 3.25748157 24.258635 3.25748157 25.2874429 3.68327411 25.800593 3.89480525 26.2558603 4.1894797 26.640367 4.55845657zM26.4894246 7.44448495C26.4894246 7.07284281 26.4145295 6.71556711 26.2665693 6.3821488 26.1180669 6.04970558 25.911614 5.7547061 25.6524295 5.50573122 25.3929061 5.2563663 25.0847856 5.05835652 24.738777 4.91683738 24.3916162 4.7749932 24.019174 4.70303101 23.6306006 4.70303101 23.242095 4.70303101 22.8696529 4.7749932 22.5229665 4.91683738 22.1763479 5.05835652 21.8681596 5.2563663 21.6086362 5.50573122 21.3491806 5.7547061 21.1427277 6.04886049 20.9947675 6.3821488 20.8468073 6.71465702 20.7717767 7.07193272 20.7717767 7.44448495 20.7717767 7.81853232 20.8468073 8.17528797 20.9947675 8.50734115 21.1427277 8.84114951 21.3491806 9.13582395 21.6086362 9.38421377 21.8681596 9.6336437 22.1763479 9.83158848 22.5226276 9.97349766 23.2134248 10.256926 24.0483187 10.256926 24.738167 9.97349766 25.0847856 9.83158848 25.3929061 9.6336437 25.6524295 9.38421377 25.911614 9.13582395 26.1180669 8.84114951 26.2665693 8.50773119 26.4145295 8.17463791 26.4894246 7.81755723 26.4894246 7.44448495zM7.43739723 0C3.32989257 0 0 3.13398767 0 6.99990328 0 9.00501573.898330378 10.8113966 2.33420653 12.0874183L2.33420653 6.99990328 2.33420653 6.89512106 2.33996154 6.89512106C2.39963556 4.29142812 4.65635493 2.19688002 7.43739723 2.19688002 10.2561212 2.19688002 12.5407935 4.34733347 12.5407935 6.99990328 12.5407935 9.65285998 10.2561212 11.828848 7.43739723 11.8027976 5.71829215 11.7870641 4.70643726 11.2124707 4.45054464 10.9662164L4.45054464 13.335842C4.80790365 13.5151002 5.84497098 14 7.43739723 14 11.5449704 14 14.875 10.8657544 14.875 6.99990328 14.875 3.13398767 11.5449704 0 7.43739723 0"/>
    <path d="M5.64335895,9.625 C5.71117946,9.625 5.77885567,9.60937889 5.83967768,9.57813666 L9.42795978,7.73977494 C9.54996454,7.67729049 9.625,7.56186071 9.625,7.43753201 C9.625,7.31326734 9.54996454,7.19809364 9.42795978,7.13567321 L5.83967768,5.29692736 C5.77885567,5.26555709 5.71117946,5.25 5.64335895,5.25 C5.57568274,5.25 5.50793438,5.26555709 5.44711237,5.29692736 C5.32546835,5.35928377 5.25,5.47471355 5.25,5.59904225 L5.25,9.27659796 C5.25,9.40086264 5.32546835,9.51565221 5.44711237,9.57813666 C5.50793438,9.60937889 5.57568274,9.625 5.64335895,9.625"/>
  </g>
</svg>
