<?xml version="1.0" encoding="utf-8"?>
<!-- Generator: Adobe Illustrator 19.1.0, SVG Export Plug-In . SVG Version: 6.00 Build 0)  -->
<svg version="1.1" id="Layer_1" xmlns="http://www.w3.org/2000/svg" xmlns:xlink="http://www.w3.org/1999/xlink" x="0px" y="0px"
	 viewBox="-349 0 100 100" style="enable-background:new -349 0 100 100;" xml:space="preserve">
<style type="text/css">
	.st0{fill:#FFFFFF;}
	.st1{fill:#ECB53A;}
</style>
<g>
	<path class="st0" d="M-299,2c-26.6,0-48,21.4-48,48c0,13.8,5.8,26.1,15.1,34.9V50v-0.7l0,0c0.4-17.9,14.9-32.2,32.9-32.2
		c18.2,0,33,14.7,33,32.9s-14.7,33.1-33,32.9c-11.1-0.1-17.7-4.1-19.3-5.7v16.2c2.3,1.2,9,4.6,19.3,4.6c26.6,0,48-21.4,48-48
		S-272.4,2-299,2z"/>
	<path class="st1" d="M-308.6,65.7c0.4,0,0.8-0.1,1.2-0.3l22-12.7c0.7-0.4,1.2-1.2,1.2-2s-0.5-1.6-1.2-2l-22-12.7
		c-0.4-0.2-0.8-0.3-1.2-0.3c-0.4,0-0.8,0.1-1.2,0.3c-0.7,0.4-1.2,1.2-1.2,2v25.2c0,0.8,0.5,1.6,1.2,2
		C-309.4,65.6-309,65.7-308.6,65.7z"/>
	<path class="st0" d="M-308.6,65.7c0.4,0,0.8-0.1,1.2-0.3l22-12.7c0.7-0.4,1.2-1.2,1.2-2s-0.5-1.6-1.2-2l-22-12.7
		c-0.4-0.2-0.8-0.3-1.2-0.3c-0.4,0-0.8,0.1-1.2,0.3c-0.7,0.4-1.2,1.2-1.2,2v25.2c0,0.8,0.5,1.6,1.2,2
		C-309.4,65.6-309,65.7-308.6,65.7z"/>
	<path class="st1" d="M-331.9,50c0-0.2,0-0.5,0-0.7l0,0V50z"/>
	<path class="st1" d="M-331.9,50c0-0.2,0-0.5,0-0.7l0,0V50z"/>
</g>
</svg>
