<?xml version="1.0" encoding="utf-8"?>
<!-- Generator: Adobe Illustrator 19.1.0, SVG Export Plug-In . SVG Version: 6.00 Build 0)  -->
<svg version="1.1" id="Layer_1" xmlns="http://www.w3.org/2000/svg" xmlns:xlink="http://www.w3.org/1999/xlink" x="0px" y="0px"
	 viewBox="-349 0 100 100" style="enable-background:new -349 0 100 100;" xml:space="preserve">
<style type="text/css">
	.st0{fill:#F8CC29;}
	.st1{fill:#FFFFFF;}
	.st2{fill:#ECB53A;}
</style>
<path class="st0" d="M-259.3,2h-78.3c-4.8,0-9.5,1.9-9.5,8.2v81.7c0,4.9,4.6,6.1,9.5,6.1h78.3c4.8,0,8.3-1.2,8.3-6.1V10.2
	C-251,3.9-254.3,2-259.3,2z"/>
<g>
	<path class="st1" d="M-299,12.4c-20.8,0-37.5,16.8-37.5,37.5c0,10.8,4.5,20.4,11.8,27.3V50v-0.6l0,0c0.3-14,11.7-25.2,25.7-25.2
		c14.3,0,25.8,11.5,25.8,25.7s-11.5,25.9-25.8,25.7c-8.7-0.1-13.8-3.2-15.1-4.4v12.7c1.8,0.9,7,3.6,15.1,3.6
		c20.8,0,37.5-16.8,37.5-37.5S-278.2,12.4-299,12.4z"/>
	<path class="st2" d="M-306.5,62.3c0.3,0,0.6-0.1,0.9-0.3l17.2-9.9c0.6-0.3,0.9-0.9,0.9-1.6c0-0.7-0.4-1.3-0.9-1.6l-17.2-9.9
		c-0.3-0.2-0.6-0.3-0.9-0.3s-0.7,0.1-0.9,0.3c-0.6,0.3-0.9,0.9-0.9,1.6v19.7c0,0.7,0.4,1.3,0.9,1.6
		C-307.1,62.2-306.8,62.3-306.5,62.3z"/>
	<path class="st1" d="M-306.5,62.3c0.3,0,0.6-0.1,0.9-0.3l17.2-9.9c0.6-0.3,0.9-0.9,0.9-1.6c0-0.7-0.4-1.3-0.9-1.6l-17.2-9.9
		c-0.3-0.2-0.6-0.3-0.9-0.3s-0.7,0.1-0.9,0.3c-0.6,0.3-0.9,0.9-0.9,1.6v19.7c0,0.7,0.4,1.3,0.9,1.6
		C-307.1,62.2-306.8,62.3-306.5,62.3z"/>
	<path class="st2" d="M-324.6,50c0-0.2,0-0.4,0-0.6l0,0V50z"/>
	<path class="st2" d="M-324.6,50c0-0.2,0-0.4,0-0.6l0,0V50z"/>
</g>
</svg>
