<svg id="Layer_1" data-name="Layer 1" xmlns="http://www.w3.org/2000/svg" viewBox="0 0 183.41 124.66"><defs><style>.cls-1{fill:#c32229;}.cls-2{fill:#fff;}</style></defs><title>Untitled-7</title><path class="cls-1" d="M163.58,71.37l27.68-27.69V12.58a4.52,4.52,0,0,0-4.52-4.52H12.38a4.52,4.52,0,0,0-4.53,4.52V128.2a4.52,4.52,0,0,0,4.53,4.52H186.74a4.52,4.52,0,0,0,4.52-4.52V99Z" transform="translate(-7.85 -8.06)"/><path class="cls-2" d="M62.29,56.12a4.22,4.22,0,0,0-3.87-.49,2.61,2.61,0,0,0-1.64,2.69V82.51a2.48,2.48,0,0,0,1.64,2.69,4.73,4.73,0,0,0,3.87-.49l4.14-2.51,15.75-9.58a2.4,2.4,0,0,0,0-4.4Z" transform="translate(-7.85 -8.06)"/><path class="cls-2" d="M168.88,44.85A2.83,2.83,0,0,0,171.71,42V30.54c0-1.56-.74-2.83-2.2-2.83H107.65c-2.56,0-2.67,1-2.73,2.66v65H45V44.85H89.53A2.83,2.83,0,0,0,92.35,42V30.54A2.8,2.8,0,0,0,89,27.71H30.23a2.83,2.83,0,0,0-2.81,2.66c0,.05,0,.11,0,.17s0,.11,0,.17v79.72c0,1.65,0,2.73,2.72,2.65H170c1.28-.1,1.74-1.27,1.74-2.83v-12a2.83,2.83,0,0,0-2.83-2.83H124.25V44.85Z" transform="translate(-7.85 -8.06)"/></svg>