<svg id="레이어_1" data-name="레이어 1" xmlns="http://www.w3.org/2000/svg" viewBox="0 0 678.46 127.85"><defs><style>.cls-1{fill:#fabe00;}</style></defs><title>pockestra_logotype</title><path class="cls-1" d="M139.31,267A39.79,39.79,0,0,0,74.55,279.6a39.06,39.06,0,0,0-3.11,15.48v63.85h13V323.37a35.34,35.34,0,0,0,9.74,7.06c11.47,5.81,22.77,5.43,32.44,1.29a39.79,39.79,0,0,0,21.16-21.16,40,40,0,0,0,0-31A40.2,40.2,0,0,0,139.31,267m-1.41,28.11a26.33,26.33,0,0,1-2.08,10.36,26.53,26.53,0,0,1-14.28,14.26,26.66,26.66,0,0,1-35-14.27,26.79,26.79,0,0,1,0-20.7,26.59,26.59,0,0,1,14.28-14.27,26.67,26.67,0,0,1,20.7,0,27,27,0,0,1,8.54,5.73,27.28,27.28,0,0,1,5.73,8.54,26.28,26.28,0,0,1,2.08,10.35" transform="translate(-71.44 -231.08)"/><path class="cls-1" d="M227,266.83a39.77,39.77,0,0,0-64.75,12.63,40,40,0,0,0,0,31,39.79,39.79,0,0,0,21.16,21.16,39.94,39.94,0,0,0,30.95,0,39.88,39.88,0,0,0,21.16-21.16,40.08,40.08,0,0,0,0-31A40.14,40.14,0,0,0,227,266.83m-28.12,1.4a26.29,26.29,0,0,1,10.35,2.09,26.74,26.74,0,0,1,14.28,14.28,26.86,26.86,0,0,1,0,20.68,26.72,26.72,0,0,1-49.26,0,26.79,26.79,0,0,1,0-20.7,26.74,26.74,0,0,1,14.28-14.28,26.26,26.26,0,0,1,10.35-2.09" transform="translate(-71.44 -231.08)"/><path class="cls-1" d="M269.12,276.06a26.7,26.7,0,0,1,37.77,0,23.5,23.5,0,0,1,4.27,5.81l.47.9H326l-1.42-3.29a39,39,0,0,0-8.46-12.65,39.79,39.79,0,0,0-64.75,12.63,40,40,0,0,0,0,31,39.94,39.94,0,0,0,21.16,21.17,40.08,40.08,0,0,0,31,0,40.23,40.23,0,0,0,12.63-8.53,39.54,39.54,0,0,0,8.5-12.72l1.26-3.37H311.79l-.48.89a25.29,25.29,0,0,1-4.42,6,26.69,26.69,0,0,1-37.77,0,27.14,27.14,0,0,1-5.74-8.54,26.73,26.73,0,0,1,0-20.7,26.79,26.79,0,0,1,5.73-8.53" transform="translate(-71.44 -231.08)"/><path class="cls-1" d="M480.49,293.71l-.12-1.8a37.52,37.52,0,0,0-3-12.44,39.29,39.29,0,0,0-8.46-12.65,39.78,39.78,0,0,0-64.76,12.63,40,40,0,0,0,0,31,39.83,39.83,0,0,0,21.17,21.17,40.06,40.06,0,0,0,30.95,0,40.27,40.27,0,0,0,12.64-8.53,39.33,39.33,0,0,0,8.48-12.72l1.27-3.37h-14.1l-.47.89a25,25,0,0,1-4.42,6,26.72,26.72,0,0,1-37.78,0,27.28,27.28,0,0,1-5.73-8.54,26.25,26.25,0,0,1-2.08-10.35c0-.4,0-.81,0-1.22Zm-29.38-23.4a26.87,26.87,0,0,1,8.51,5.71,28.93,28.93,0,0,1,3.61,4.63H418.16a27.63,27.63,0,0,1,3.7-4.6,26.74,26.74,0,0,1,29.25-5.74" transform="translate(-71.44 -231.08)"/><path class="cls-1" d="M539.23,293a52.7,52.7,0,0,0-11.11-4.68q-5.68-1.65-10.34-3.17a32.35,32.35,0,0,1-7.11-3.11,6.13,6.13,0,0,1-1-9.76,13.11,13.11,0,0,1,5.7-3.91,20.18,20.18,0,0,1,14.46.88c4,1.83,4.84,6.42,4.84,6.42h15.05A21.7,21.7,0,0,0,542,262.12a30.47,30.47,0,0,0-8.2-5c-6.15-2.43-15.92-2.78-23.61,0a32.3,32.3,0,0,0-9.25,5.15,23.45,23.45,0,0,0-6,7.38,15.34,15.34,0,0,0-1.55,9.34,18.42,18.42,0,0,0,4.91,10.56,25.53,25.53,0,0,0,9.45,6.25,85.6,85.6,0,0,0,11.35,3.4,61,61,0,0,1,9.7,2.94,13.15,13.15,0,0,1,5.35,3.72,9.47,9.47,0,0,1,1.58,6.26,9.3,9.3,0,0,1-3.53,6.68c-2.15,1.86-5.54,2.79-10.13,2.79h-.63c-3.74,0-7.95-.71-10.31-2.13a13.47,13.47,0,0,1-5.22-4.94,12.58,12.58,0,0,1-1.44-5.93V307h-13.7l0,1.63a24.49,24.49,0,0,0,2.43,11.11c3.83,8.39,12.07,12.12,15.77,13.33a43.56,43.56,0,0,0,12.49,1.66,41.42,41.42,0,0,0,10.94-1.46,30.52,30.52,0,0,0,9.37-4.3,21.78,21.78,0,0,0,6.53-7.06,18.68,18.68,0,0,0,2.44-9.49,21.05,21.05,0,0,0-3-11.65,23.71,23.71,0,0,0-8.39-7.7" transform="translate(-71.44 -231.08)"/><path class="cls-1" d="M647.84,261.64A42.79,42.79,0,0,0,636.47,269V258.8H623.55v72.58h13.06V298.27a26.33,26.33,0,0,1,2.08-10.33,27,27,0,0,1,5.74-8.55,25.92,25.92,0,0,1,8.55-5.73c5.54-2.31,12.09-2.09,15.74-2.09h1.66V258.52h-1.66c-5.48,0-14.85.42-20.88,3.12" transform="translate(-71.44 -231.08)"/><path class="cls-1" d="M746.78,279.47a39.78,39.78,0,0,0-73.28,0,40,40,0,0,0,0,31,40,40,0,0,0,21.16,21.16,40.08,40.08,0,0,0,31,0,40.88,40.88,0,0,0,11.23-7.18v7h13V294.94a38.91,38.91,0,0,0-3.12-15.47m-9.93,15.47v1.15a28.39,28.39,0,0,1-2.09,9.27,26.72,26.72,0,0,1-49.24-.07,26.67,26.67,0,0,1,0-20.7,26.84,26.84,0,0,1,5.73-8.54,27.14,27.14,0,0,1,8.54-5.74,26.94,26.94,0,0,1,20.71,0,27.16,27.16,0,0,1,8.52,5.74,26.8,26.8,0,0,1,5.74,8.55,26,26,0,0,1,2.09,10.34" transform="translate(-71.44 -231.08)"/><path class="cls-1" d="M585.54,275.57H609.8V262.52H585.54V248.79h-13v13.73H560.77v13.05h11.72v31.75c0,.29,0,.59,0,.88s0,.6,0,.9A26.44,26.44,0,0,0,612,331.23l-5.52-11a14.09,14.09,0,0,1-7.54,2.22c-6.26,0-13.41-3.56-13.41-13.07V303.7" transform="translate(-71.44 -231.08)"/><polygon class="cls-1" points="326.97 24.1 308.03 24.1 284.97 45.86 282.6 45.79 282.78 0 269.7 0 269.7 100.29 282.78 100.29 282.82 66.45 284.92 66.45 309.81 100.29 325.94 100.29 293.29 55.9 326.97 24.1"/></svg>