<?xml version="1.0" encoding="utf-8"?>
<!-- Generator: Adobe Illustrator 19.1.0, SVG Export Plug-In . SVG Version: 6.00 Build 0)  -->
<svg version="1.1" id="Layer_1" xmlns="http://www.w3.org/2000/svg" xmlns:xlink="http://www.w3.org/1999/xlink" x="0px" y="0px"
	 viewBox="-349 0 100 100" style="enable-background:new -349 0 100 100;" xml:space="preserve">
<style type="text/css">
	.st0{fill:#D0D0D0;}
	.st1{fill:#FFFFFF;}
</style>
<g>
	<path id="Blue_1_" class="st0" d="M-256.3,98c3,0,5.3-2.3,5.3-5.3V7.3c0-3-2.3-5.3-5.3-5.3h-85.4c-3,0-5.3,2.3-5.3,5.3v85.4
		c0,3,2.3,5.3,5.3,5.3H-256.3z"/>
	<path id="f" class="st1" d="M-280.7,98V60.8h12.5l1.8-14.5h-14.3V37c0-4.2,1.1-7,7.1-7h7.7V17c-1.3-0.2-5.9-0.6-11.1-0.6
		c-11,0-18.6,6.7-18.6,19.2v10.7h-12.6v14.5h12.5V98H-280.7z"/>
</g>
</svg>
