<?xml version="1.0" encoding="utf-8"?>
<!-- Generator: Adobe Illustrator 19.1.0, SVG Export Plug-In . SVG Version: 6.00 Build 0)  -->
<svg version="1.1" id="Layer_1" xmlns="http://www.w3.org/2000/svg" xmlns:xlink="http://www.w3.org/1999/xlink" x="0px" y="0px"
	 viewBox="-349 0 100 100" style="enable-background:new -349 0 100 100;" xml:space="preserve">
<style type="text/css">
	.st0{fill:#DD4B38;}
	.st1{fill:#FFFFFF;}
	.st2{fill:url(#SVGID_1_);}
</style>
<g>
	<path class="st0" d="M-259.3,2h-78.2c-4.8,0-9.5,1.9-9.5,8.2v81.7c0,4.9,4.6,6.1,9.5,6.1h78.2c4.8,0,8.3-1.2,8.3-6.1V10.2
		C-251,3.9-254.3,2-259.3,2z"/>
	<polygon id="_x2B__3_" class="st1" points="-277,8.9 -269.7,8.9 -269.7,26.6 -252,26.6 -252,34.1 -269.7,34.1 -269.7,51.9 
		-277,51.9 -277,34.1 -294.7,34.1 -294.7,26.6 -277,26.6 	"/>
	
		<linearGradient id="SVGID_1_" gradientUnits="userSpaceOnUse" x1="-319.2999" y1="92.14" x2="-319.2999" y2="3.7996" gradientTransform="matrix(1 0 0 1 0 5.26)">
		<stop  offset="0" style="stop-color:#F2F2F2"/>
		<stop  offset="0.2413" style="stop-color:#F6F6F6"/>
		<stop  offset="1" style="stop-color:#FFFFFF"/>
	</linearGradient>
	<path class="st2" d="M-306.5,69.6l-5-3.9c-1.5-1.2-3.6-3-3.6-6c0-3.1,2-5,3.9-6.8c5.8-4.6,11.2-9.5,11.2-19.9
		c0-9.5-5.1-14.8-8.5-17.8c1.1,0,8.5,0,8.5,0l7.8-6.3h-29.3c-7.3,0.1-15.9,1.2-23.8,7.9c-0.4,0.3-0.8,0.7-1.1,1v34.1
		c3.8,3.2,9,5.6,15.2,5.6c1.4,0,2.9-0.1,4.4-0.3c-0.7,1.6-1.4,3.1-1.4,5.4c0,4.3,2.2,6.9,4.2,9.5c-5.3,0.4-16.1-0.5-22.5,4.5v8.1
		c2.9-3.9,7.5-5.6,9.4-6.4c5.8-1.9,13.3-2.2,14.5-2.2c1.3,0,2,0,3.2,0.1c10.5,7.6,18.1,11.4,18.2,18.6c0,1.4-0.4,1.8-0.6,2.6h8.1
		c0.8-1.9,1.1-4.3,1.1-6.8C-292.5,80.8-300.4,74.8-306.5,69.6z M-324,51.9c-11.9,0-16.7-13.9-16.7-23.3c0-3.7,0.4-7.5,2.8-10.3
		c2.2-2.8,6.1-4.6,9.7-4.6c11.4,0,17.3,15.6,17.3,25.7c0,2-1,5.9-3.6,9C-317.2,51-320.7,51.9-324,51.9z"/>
</g>
</svg>
