<?xml version="1.0" encoding="utf-8"?>
<!-- Generator: Adobe Illustrator 19.1.0, SVG Export Plug-In . SVG Version: 6.00 Build 0)  -->
<svg version="1.1" id="Layer_1" xmlns="http://www.w3.org/2000/svg" xmlns:xlink="http://www.w3.org/1999/xlink" x="0px" y="0px"
	 viewBox="-299 71 200 40" style="enable-background:new -299 71 200 40;" xml:space="preserve">
<style type="text/css">
	.st0{fill:#FFFFFF;}
</style>
<g>
	<path class="st0" d="M-277.4,83.1c-1-1-2.3-1.8-3.7-2.4c-2.8-1.2-6.2-1.2-8.9,0c-1.4,0.6-2.6,1.4-3.7,2.4c-1,1-1.9,2.2-2.5,3.6
		c-0.6,1.4-0.9,2.8-0.9,4.4v18h3.8V99c0.7,0.8,1.7,1.4,2.8,2c3.3,1.6,6.6,1.5,9.4,0.4c1.4-0.6,2.6-1.4,3.7-2.4c1-1,1.9-2.2,2.5-3.6
		c0.6-1.4,0.9-2.8,0.9-4.4c0-1.5-0.3-3-0.9-4.4C-275.5,85.3-276.4,84.1-277.4,83.1z M-277.8,91c0,1-0.2,2-0.6,2.9
		c-0.4,0.9-1,1.7-1.7,2.4c-0.7,0.7-1.5,1.2-2.5,1.6c-1.9,0.8-4.1,0.8-6,0c-0.9-0.4-1.8-0.9-2.5-1.6c-0.7-0.7-1.3-1.5-1.7-2.4
		c-0.4-0.9-0.6-1.9-0.6-2.9c0-1,0.2-2,0.6-2.9c0.4-0.9,1-1.7,1.7-2.4s1.5-1.2,2.5-1.6c0.9-0.4,1.9-0.6,3-0.6s2.1,0.2,3,0.6
		c0.9,0.4,1.8,0.9,2.5,1.6c0.7,0.7,1.3,1.5,1.7,2.4C-278,89-277.8,90-277.8,91z"/>
	<path class="st0" d="M-252.1,83.1c-1-1-2.3-1.8-3.7-2.4c-2.8-1.2-6.2-1.2-8.9,0c-1.4,0.6-2.6,1.4-3.7,2.4c-1,1-1.9,2.2-2.5,3.6
		c-0.6,1.4-0.9,2.8-0.9,4.4c0,1.5,0.3,3,0.9,4.4c0.6,1.3,1.4,2.5,2.5,3.6c1,1,2.3,1.8,3.7,2.4c1.4,0.6,2.9,0.9,4.5,0.9
		c1.6,0,3.1-0.3,4.5-0.9c1.4-0.6,2.6-1.4,3.7-2.4c1-1,1.9-2.2,2.5-3.6c0.6-1.4,0.9-2.8,0.9-4.4c0-1.5-0.3-3-0.9-4.4
		C-250.2,85.3-251,84.1-252.1,83.1z M-260.2,83.5c1,0,2.1,0.2,3,0.6c0.9,0.4,1.8,0.9,2.5,1.6c0.7,0.7,1.3,1.5,1.7,2.4
		c0.4,0.9,0.6,1.9,0.6,2.9c0,1-0.2,2-0.6,2.9c-0.4,0.9-1,1.7-1.7,2.4c-0.7,0.7-1.5,1.2-2.5,1.6c-1.9,0.8-4.1,0.8-6,0
		c-0.9-0.4-1.8-0.9-2.5-1.6c-0.7-0.7-1.3-1.5-1.7-2.4c-0.4-0.9-0.6-1.9-0.6-2.9c0-1,0.2-2,0.6-2.9c0.4-0.9,1-1.7,1.7-2.4
		c0.7-0.7,1.5-1.2,2.5-1.6C-262.2,83.7-261.2,83.5-260.2,83.5z"/>
	<path class="st0" d="M-239.9,85.7c0.7-0.7,1.5-1.2,2.5-1.6c1.9-0.8,4.1-0.8,6,0c0.9,0.4,1.8,0.9,2.5,1.6c0.5,0.5,0.9,1,1.2,1.6
		l0.1,0.3h4.2l-0.4-0.9c-0.6-1.4-1.4-2.6-2.4-3.6c-1-1-2.3-1.8-3.7-2.4c-2.8-1.2-6.2-1.2-8.9,0c-1.4,0.6-2.6,1.4-3.7,2.4
		c-1,1-1.9,2.2-2.5,3.6c-0.6,1.4-0.9,2.8-0.9,4.4c0,1.5,0.3,3,0.9,4.4c0.6,1.3,1.4,2.5,2.5,3.6c1,1,2.3,1.8,3.7,2.4
		c1.4,0.6,2.9,0.9,4.5,0.9c1.6,0,3.1-0.3,4.5-0.9c1.4-0.6,2.6-1.4,3.7-2.4c1-1,1.9-2.2,2.5-3.6l0.4-1h-4.1l-0.1,0.2
		c-0.4,0.6-0.8,1.2-1.3,1.7c-0.7,0.7-1.5,1.2-2.5,1.6c-1.9,0.8-4.1,0.8-6,0c-0.9-0.4-1.8-0.9-2.5-1.6c-0.7-0.7-1.3-1.5-1.7-2.4
		c-0.4-0.9-0.6-1.9-0.6-2.9c0-1,0.2-2,0.6-2.9C-241.1,87.2-240.6,86.3-239.9,85.7z"/>
	<path class="st0" d="M-178.8,90.6l0-0.5c-0.1-1.2-0.4-2.4-0.9-3.5c-0.6-1.4-1.4-2.6-2.4-3.6c-1-1-2.3-1.8-3.7-2.4
		c-2.8-1.2-6.2-1.2-8.9,0c-1.4,0.6-2.6,1.4-3.7,2.4c-1,1-1.9,2.2-2.5,3.6c-0.6,1.4-0.9,2.8-0.9,4.4c0,1.5,0.3,3,0.9,4.4
		c0.6,1.3,1.4,2.5,2.5,3.6c1,1,2.3,1.8,3.7,2.4c1.4,0.6,2.9,0.9,4.5,0.9c1.6,0,3.1-0.3,4.5-0.9c1.4-0.6,2.6-1.4,3.7-2.4
		c1-1,1.9-2.2,2.5-3.6l0.4-0.9h-4.1l-0.1,0.2c-0.4,0.6-0.8,1.2-1.3,1.7c-0.7,0.7-1.5,1.2-2.5,1.6c-1.9,0.8-4.1,0.8-6,0
		c-0.9-0.4-1.8-0.9-2.5-1.6c-0.7-0.7-1.3-1.5-1.7-2.4C-197.8,93-198,92-198,91c0-0.1,0-0.2,0-0.3L-178.8,90.6L-178.8,90.6
		L-178.8,90.6z M-187.3,84c0.9,0.4,1.8,0.9,2.5,1.6c0.4,0.4,0.7,0.8,1,1.3h-13c0.3-0.5,0.7-0.9,1.1-1.3c0.7-0.7,1.5-1.2,2.5-1.6
		C-191.4,83.3-189.2,83.3-187.3,84z"/>
	<path class="st0" d="M-161.9,90.4c-1-0.5-2.1-1-3.2-1.3c-1.1-0.3-2.1-0.6-3-0.9c-0.9-0.3-1.5-0.6-2.1-0.9c-0.4-0.3-0.7-0.6-0.8-1.1
		c-0.1-0.6,0.1-1.1,0.5-1.6c0.5-0.6,1.1-0.9,1.6-1.1c1.6-0.5,3-0.3,4.2,0.2c1.2,0.5,1.4,1.8,1.4,1.8h4.4c0,0-0.2-2.2-2.2-3.8
		c-0.7-0.5-1.4-1-2.4-1.4c-1.8-0.7-4.6-0.8-6.8,0c-1,0.4-1.9,0.9-2.7,1.5c-0.7,0.6-1.3,1.3-1.7,2.1c-0.4,0.8-0.6,1.7-0.4,2.6
		c0.2,1.2,0.6,2.2,1.4,3c0.8,0.8,1.7,1.4,2.7,1.8c1,0.4,2.1,0.7,3.3,1c1.1,0.2,2.1,0.5,2.8,0.8c0.7,0.3,1.2,0.6,1.5,1
		c0.3,0.4,0.5,1,0.5,1.8c0,0.7-0.4,1.4-1,1.9c-0.6,0.5-1.6,0.8-2.9,0.8l-0.2,0c-1.1,0-2.3-0.2-3-0.6c-0.7-0.4-1.2-0.9-1.5-1.4
		c-0.3-0.5-0.4-1.1-0.4-1.7v-0.5h-4l0,0.5c0,1.2,0.3,2.2,0.7,3.1c1.1,2.4,3.5,3.4,4.6,3.8c1.1,0.3,2.5,0.5,3.6,0.5
		c1.1,0,2.1-0.1,3.2-0.4c1-0.3,1.9-0.7,2.7-1.2c0.8-0.5,1.4-1.2,1.9-2c0.5-0.8,0.7-1.7,0.7-2.7c0-1.3-0.3-2.4-0.9-3.3
		C-160,91.7-160.8,91-161.9,90.4z"/>
	<path class="st0" d="M-130.5,81.6c-1.2,0.5-2.3,1.2-3.3,2.1v-2.9h-3.7v20.4h3.8v-9.3c0-1,0.2-2,0.6-2.9c0.4-0.9,1-1.7,1.7-2.4
		c0.7-0.7,1.5-1.2,2.5-1.6c1.6-0.6,3.5-0.6,4.5-0.6h0.5v-3.7h-0.5C-126,80.7-128.7,80.8-130.5,81.6z"/>
	<path class="st0" d="M-101.9,86.6c-0.6-1.3-1.4-2.5-2.5-3.6c-1-1-2.3-1.8-3.7-2.4c-2.8-1.2-6.2-1.2-8.9,0c-1.4,0.6-2.6,1.4-3.7,2.4
		c-1,1-1.9,2.2-2.5,3.6c-0.6,1.4-0.9,2.8-0.9,4.4s0.3,3,0.9,4.4c0.6,1.3,1.4,2.5,2.5,3.6c1,1,2.3,1.8,3.7,2.4
		c1.4,0.6,2.9,0.9,4.5,0.9c1.6,0,3.1-0.3,4.5-0.9c1.2-0.5,2.3-1.2,3.2-2v2h3.8V91C-101,89.4-101.3,88-101.9,86.6z M-104.8,91v0.3
		c-0.1,0.9-0.3,1.8-0.6,2.6c-0.4,0.9-1,1.7-1.7,2.4c-0.7,0.7-1.5,1.2-2.5,1.6c-1.9,0.8-4.1,0.8-6,0c-0.9-0.4-1.8-0.9-2.5-1.6
		c-0.7-0.7-1.3-1.5-1.7-2.4c-0.4-0.9-0.6-1.9-0.6-2.9c0-1,0.2-2,0.6-2.9c0.4-0.9,1-1.7,1.7-2.4c0.7-0.7,1.5-1.2,2.5-1.6
		c0.9-0.4,1.9-0.6,3-0.6c1,0,2.1,0.2,3,0.6c0.9,0.4,1.8,0.9,2.5,1.6c0.7,0.7,1.3,1.5,1.7,2.4C-105,89-104.8,90-104.8,91z"/>
	<g>
		<path class="st0" d="M-148.5,93.4V95c0,2.7,2.1,3.7,3.9,3.7c0.8,0,1.5-0.2,2.2-0.6l1.6,3.1c-1.1,0.6-2.4,1-3.8,1
			c-1.8,0-3.4-0.6-4.7-1.5c-1.8-1.3-2.9-3.4-3-5.7c0-0.1,0-0.2,0-0.3s0-0.2,0-0.3v-8.9h-3.4v-3.7h3.4V78h3.8v3.9h7v3.7h-7
			L-148.5,93.4L-148.5,93.4z"/>
	</g>
	<g>
		<polygon class="st0" points="-202.5,79.8 -208,79.8 -214.7,85.9 -215.3,85.9 -215.3,73 -219.1,73 -219.1,101.2 -215.3,101.2 
			-215.3,91.7 -214.7,91.7 -207.5,101.2 -202.8,101.2 -212.3,88.7 		"/>
	</g>
</g>
</svg>
