<svg id="레이어_1" data-name="레이어 1" xmlns="http://www.w3.org/2000/svg" viewBox="0 0 319.49 319.49"><defs><style>.cls-1{fill:#fabe00;}</style></defs><title>pockestra_symbol</title><path class="cls-1" d="M397.38,125.08a159.66,159.66,0,0,0-109.6,275.84V282.42h.13A109.55,109.55,0,0,1,507,284.82c0,60.55-49.05,110.21-109.6,109.6-36.93-.36-58.67-13.47-64.15-19.08v54.07c7.68,4.08,29.94,15.15,64.15,15.15a159.74,159.74,0,0,0,0-319.48" transform="translate(-237.63 -125.08)"/><path class="cls-1" d="M365.37,337.14a8,8,0,0,0,4-1.08l73.18-42.26a8,8,0,0,0,0-13.87l-73.18-42.27a7.88,7.88,0,0,0-8,0,8,8,0,0,0-4,6.94v84.53a8.06,8.06,0,0,0,8,8" transform="translate(-237.63 -125.08)"/><path class="cls-1" d="M287.77,239.33c0-.82.1-1.58.13-2.4h-.13Z" transform="translate(-237.63 -125.08)"/><path class="cls-1" d="M287.77,239.33c0-.82.1-1.58.13-2.4h-.13Z" transform="translate(-237.63 -125.08)"/></svg>